<svg xmlns="http://www.w3.org/2000/svg" width="361.282" height="62.158" viewBox="0 0 361.282 62.158"><defs><style>.a{fill:rgba(23,41,99,0.2);}.b{fill:rgba(244,98,98,0.1);}.c{fill:#babeca;}.d,.i{fill:none;stroke:#59656f;}.d{stroke-linecap:round;stroke-linejoin:round;stroke-width:1.282px;}.e{fill:rgba(23,41,99,0.26);}.f{fill:#f7ebec;}.g{fill:rgba(244,98,98,0.3);}.h{fill:#aeb2c2;}</style></defs><g transform="translate(0.641 -490.842)"><g transform="translate(-0.213 27)"><g transform="translate(0.213 476.636)"><g transform="translate(157.598 10.634)"><rect class="a" width="40.3" height="11.905" transform="translate(0 0)"/><rect class="b" width="4.334" height="20.652" transform="translate(0 16.528)"/><rect class="b" width="40.3" height="2.774" transform="translate(0 16.528)"/><rect class="b" width="20.42" height="4.334" transform="translate(4.373 20.901)"/><rect class="b" width="20.42" height="4.334" transform="translate(53.419 20.901)"/><rect class="c" width="20.42" height="4.334" transform="translate(28.763 20.901)"/><path class="d" d="M297.972,146.649v-37.18h78.077v37.18" transform="translate(-297.972 -109.469)"/><line class="d" x2="78.077" transform="translate(0 16.528)"/><line class="d" x2="78.077" transform="translate(0 14.217)"/><line class="d" x2="78.077" transform="translate(0 11.905)"/><rect class="d" width="20.288" height="16.144" transform="translate(28.895 21.036)"/><line class="d" y2="16.144" transform="translate(39.039 21.036)"/><rect class="d" width="20.458" height="10.229" transform="translate(4.335 21.036)"/><rect class="d" width="20.458" height="10.229" transform="translate(53.4 21.036)"/><path class="d" d="M302.133,119.3a2.08,2.08,0,1,1-4.161,0" transform="translate(-297.972 -112.483)"/><path class="d" d="M308.133,119.3a2.081,2.081,0,1,1-4.161,0" transform="translate(-299.811 -112.483)"/><path class="d" d="M314.133,119.3a2.08,2.08,0,1,1-4.161,0" transform="translate(-301.65 -112.483)"/><path class="d" d="M320.133,119.3a2.08,2.08,0,1,1-4.161,0" transform="translate(-303.489 -112.483)"/><path class="d" d="M326.133,119.3a2.08,2.08,0,1,1-4.161,0" transform="translate(-305.328 -112.483)"/><path class="d" d="M332.133,119.3a2.08,2.08,0,1,1-4.161,0" transform="translate(-307.167 -112.483)"/><path class="d" d="M338.133,119.3a2.081,2.081,0,0,1-4.161,0" transform="translate(-309.006 -112.483)"/><path class="d" d="M344.133,119.3a2.08,2.08,0,1,1-4.161,0" transform="translate(-310.845 -112.483)"/><path class="d" d="M350.133,119.3a2.081,2.081,0,0,1-4.161,0" transform="translate(-312.684 -112.483)"/><path class="d" d="M356.133,119.3a2.081,2.081,0,1,1-4.161,0" transform="translate(-314.523 -112.483)"/><path class="d" d="M362.133,119.3a2.081,2.081,0,1,1-4.161,0" transform="translate(-316.362 -112.483)"/><path class="d" d="M368.133,119.3a2.08,2.08,0,1,1-4.161,0" transform="translate(-318.201 -112.483)"/><path class="d" d="M374.133,119.3a2.081,2.081,0,0,1-4.161,0" transform="translate(-320.04 -112.483)"/><path class="d" d="M380.133,119.3a2.081,2.081,0,1,1-4.161,0" transform="translate(-321.879 -112.483)"/><path class="d" d="M386.133,119.3a2.08,2.08,0,1,1-4.161,0" transform="translate(-323.718 -112.483)"/><path class="d" d="M392.133,119.3a2.08,2.08,0,1,1-4.161,0" transform="translate(-325.557 -112.483)"/><path class="d" d="M398.133,119.3a2.08,2.08,0,1,1-4.161,0" transform="translate(-327.396 -112.483)"/><path class="d" d="M404.133,119.3a2.081,2.081,0,1,1-4.161,0" transform="translate(-329.235 -112.483)"/><path class="d" d="M409.152,121.069a2.081,2.081,0,0,1-3.18-1.767" transform="translate(-331.074 -112.483)"/><path class="d" d="M302.133,113.121a2.08,2.08,0,1,1-4.161,0" transform="translate(-297.972 -110.588)"/><path class="d" d="M308.133,113.121a2.081,2.081,0,0,1-4.161,0" transform="translate(-299.811 -110.588)"/><path class="d" d="M314.133,113.121a2.08,2.08,0,1,1-4.161,0" transform="translate(-301.65 -110.588)"/><path class="d" d="M320.133,113.121a2.08,2.08,0,1,1-4.161,0" transform="translate(-303.489 -110.588)"/><path class="d" d="M326.133,113.121a2.08,2.08,0,1,1-4.161,0" transform="translate(-305.328 -110.588)"/><path class="d" d="M332.133,113.121a2.08,2.08,0,1,1-4.161,0" transform="translate(-307.167 -110.588)"/><path class="d" d="M338.133,113.121a2.081,2.081,0,0,1-4.161,0" transform="translate(-309.006 -110.588)"/><path class="d" d="M344.133,113.121a2.08,2.08,0,1,1-4.161,0" transform="translate(-310.845 -110.588)"/><path class="d" d="M350.133,113.121a2.081,2.081,0,0,1-4.161,0" transform="translate(-312.684 -110.588)"/><path class="d" d="M356.133,113.121a2.081,2.081,0,0,1-4.161,0" transform="translate(-314.523 -110.588)"/><path class="d" d="M362.133,113.121a2.081,2.081,0,0,1-4.161,0" transform="translate(-316.362 -110.588)"/><path class="d" d="M368.133,113.121a2.08,2.08,0,1,1-4.161,0" transform="translate(-318.201 -110.588)"/><path class="d" d="M374.133,113.121a2.081,2.081,0,0,1-4.161,0" transform="translate(-320.04 -110.588)"/><path class="d" d="M380.133,113.121a2.081,2.081,0,0,1-4.161,0" transform="translate(-321.879 -110.588)"/><path class="d" d="M386.133,113.121a2.08,2.08,0,1,1-4.161,0" transform="translate(-323.718 -110.588)"/><path class="d" d="M392.133,113.121a2.08,2.08,0,1,1-4.161,0" transform="translate(-325.557 -110.588)"/><path class="d" d="M398.133,113.121a2.08,2.08,0,1,1-4.161,0" transform="translate(-327.396 -110.588)"/><path class="d" d="M404.133,113.121a2.081,2.081,0,0,1-4.161,0" transform="translate(-329.235 -110.588)"/><path class="d" d="M409.152,114.888a2.081,2.081,0,0,1-3.18-1.767" transform="translate(-331.074 -110.588)"/><line class="d" y2="10.229" transform="translate(13.393 21.036)"/><line class="d" y2="10.229" transform="translate(15.734 21.036)"/><line class="d" y2="10.229" transform="translate(62.459 21.036)"/><line class="d" y2="10.229" transform="translate(64.799 21.036)"/></g><g transform="translate(0 0)"><path class="e" d="M116.438,99.877v2.114l13.521-5.385,13.521,5.6V99.877l-13.521-5.741Z" transform="translate(-84.734 -94.136)"/><path class="b" d="M133.678,138.14a4.981,4.981,0,0,0-4.907,4.965v12.332h4.907Z" transform="translate(-88.515 -107.623)"/><rect class="b" width="11.558" height="3.058" transform="translate(22.298 26.564)"/><rect class="f" width="2.714" height="8.495" transform="translate(42.511 7.649)"/><rect class="b" width="11.558" height="3.058" transform="translate(56.477 26.564)"/><rect class="g" width="58.653" height="3.058" transform="translate(15.898 19.071)"/><rect class="h" width="58.653" height="3.058" transform="translate(15.898 15.789)"/><rect class="h" width="9.483" height="3.058" transform="translate(6.415 31.979)"/><rect class="h" width="9.483" height="3.058" transform="translate(74.551 31.979)"/><rect class="d" width="58.653" height="31.67" transform="translate(15.898 16.144)"/><path class="d" d="M86.62,124.583l-14.858,8.5-1.04-2.254,15.9-9.189h58.653l15.9,9.189-1.04,2.254-14.858-8.5" transform="translate(-70.722 -102.565)"/><line class="d" y1="18.192" transform="translate(2.601 29.622)"/><rect class="d" width="9.483" height="15.835" transform="translate(6.415 31.979)"/><rect class="d" width="1.844" height="15.835" transform="translate(10.234 31.979)"/><line class="d" y1="18.192" transform="translate(87.849 29.622)"/><rect class="d" width="9.483" height="15.835" transform="translate(84.034 47.814) rotate(180)"/><rect class="d" width="1.844" height="15.835" transform="translate(80.215 47.814) rotate(180)"/><path class="d" d="M143.479,110.28H116.438v-10.4l13.521-5.741,13.521,5.741Z" transform="translate(-84.734 -94.136)"/><path class="d" d="M116.438,103.3l13.521-5.6,13.521,5.6" transform="translate(-84.734 -95.228)"/><path class="d" d="M128.772,155.435V143.1a4.982,4.982,0,0,1,4.967-4.968h0a4.982,4.982,0,0,1,4.968,4.968v12.332" transform="translate(-88.515 -107.622)"/><rect class="d" width="5.427" height="8.495" transform="translate(42.511 7.649)"/><line class="d" x2="5.427" transform="translate(42.511 11.963)"/><line class="d" y2="8.495" transform="translate(45.225 7.649)"/><circle class="d" cx="0.766" cy="0.766" r="0.766" transform="translate(46.566 40.613)"/><rect class="d" width="11.558" height="13.332" transform="translate(22.298 26.564)"/><line class="d" x2="11.327" transform="translate(22.298 31.979)"/><rect class="d" width="11.558" height="13.332" transform="translate(56.592 26.564)"/><line class="d" x2="11.327" transform="translate(56.592 31.979)"/><line class="d" y2="7.917" transform="translate(27.962 31.979)"/><line class="d" y2="7.917" transform="translate(62.372 31.979)"/></g><g transform="translate(106.852 1.154)"><circle class="b" cx="10.152" cy="10.152" r="10.152" transform="translate(0 14.979) rotate(-47.538)"/><path class="b" d="M261.408,136.722a3.358,3.358,0,1,1-3.358-3.358A3.357,3.357,0,0,1,261.408,136.722Z" transform="translate(-233.961 -107.313)"/><path class="g" d="M233.385,112a10.148,10.148,0,0,1,8.881-10.065,10.149,10.149,0,1,0-1.272,20.217,10.121,10.121,0,0,0,1.272-.088A10.147,10.147,0,0,1,233.385,112Z" transform="translate(-226.651 -97.652)"/><path class="g" d="M257.235,136.722a3.356,3.356,0,0,1,2.086-3.105,3.358,3.358,0,1,0,0,6.21A3.355,3.355,0,0,1,257.235,136.722Z" transform="translate(-233.961 -107.313)"/><circle class="d" cx="10.152" cy="10.152" r="10.152" transform="translate(0 14.979) rotate(-47.538)"/><path class="d" d="M261.408,136.722a3.358,3.358,0,1,1-3.358-3.358A3.357,3.357,0,0,1,261.408,136.722Z" transform="translate(-233.961 -107.313)"/><line class="d" y2="32.316" transform="translate(14.344 14.344)"/><line class="d" x2="3.635" y2="4.623" transform="translate(10.708 17.811)"/><line class="d" x1="9.745" y2="7.821" transform="translate(14.344 29.947)"/></g></g><g transform="translate(261.897 464.483)"><rect class="c" width="62.974" height="4.909" transform="translate(0 0.197)"/><rect class="g" width="62.974" height="3.746" transform="translate(0 30.118)"/><rect class="b" width="11.153" height="3.746" transform="translate(6.266 38.231)"/><rect class="b" width="11.153" height="3.746" transform="translate(24.029 38.231)"/><rect class="g" width="3.746" height="3.746" transform="translate(35.199 38.231)"/><rect class="f" width="3.746" height="11.002" transform="translate(27.733 10.708)"/><rect class="f" width="3.746" height="11.002" transform="translate(7.307 10.708)"/><rect class="f" width="3.746" height="11.002" transform="translate(47.419 10.708)"/><rect class="b" width="11.153" height="3.746" transform="translate(45.521 38.231)"/><rect class="g" width="23.785" height="2.553" transform="translate(62.974 47.57)"/><rect class="g" width="2.15" height="2.553" transform="translate(67.879 50.123)"/><rect class="g" width="2.15" height="2.553" transform="translate(76.143 50.123)"/><rect class="g" width="2.15" height="2.553" transform="translate(84.407 50.123)"/><rect class="g" width="2.15" height="2.553" transform="translate(92.672 50.123)"/><rect class="d" width="62.974" height="59.677" transform="translate(0 0)"/><line class="d" x2="62.974" transform="translate(0 5.106)"/><rect class="d" width="62.974" height="2.822" transform="translate(0 27.296)"/><rect class="d" width="14.916" height="21.446" transform="translate(24.029 38.231)"/><rect class="d" width="7.861" height="10.985" transform="translate(7.307 10.708)"/><line class="d" y2="21.446" transform="translate(34.914 38.231)"/><line class="d" y2="10.985" transform="translate(11.238 10.708)"/><line class="d" x2="7.357" transform="translate(7.307 14.387)"/><line class="d" x2="7.357" transform="translate(7.307 17.965)"/><rect class="d" width="7.861" height="10.985" transform="translate(27.556 10.708)"/><line class="d" y2="10.985" transform="translate(31.487 10.708)"/><line class="d" x2="7.357" transform="translate(27.556 14.387)"/><line class="d" x2="7.357" transform="translate(27.556 17.965)"/><rect class="d" width="7.861" height="10.985" transform="translate(47.419 10.708)"/><line class="d" y2="10.985" transform="translate(51.35 10.708)"/><line class="d" x2="7.357" transform="translate(47.419 14.387)"/><line class="d" x2="7.357" transform="translate(47.419 17.965)"/><rect class="d" width="11.153" height="14.849" transform="translate(6.266 38.231)"/><rect class="d" width="11.153" height="14.849" transform="translate(45.773 38.231)"/><line class="d" x2="11.153" transform="translate(6.266 42.195)"/><line class="d" x2="11.153" transform="translate(45.773 42.195)"/><rect class="d" width="35.342" height="2.553" transform="translate(62.974 47.57)"/><rect class="d" width="9.553" height="2.553" transform="translate(70.23 50.123) rotate(90)"/><rect class="d" width="9.553" height="2.553" transform="translate(78.495 50.123) rotate(90)"/><rect class="d" width="9.553" height="2.553" transform="translate(86.759 50.123) rotate(90)"/><rect class="d" width="9.553" height="2.553" transform="translate(95.023 50.123) rotate(90)"/><rect class="d" width="5.375" height="2.553" transform="translate(70.23 42.195) rotate(90)"/><rect class="d" width="5.375" height="2.553" transform="translate(78.495 42.195) rotate(90)"/><rect class="d" width="5.375" height="2.553" transform="translate(86.759 42.195) rotate(90)"/><rect class="d" width="5.375" height="2.553" transform="translate(95.023 42.195) rotate(90)"/></g></g><line class="i" x2="360" transform="translate(0.5 552.5)"/></g></svg>